<?xml version="1.0" encoding="UTF-8"?>
<svg version="1.1" viewBox="0 0 17 22" xmlns="http://www.w3.org/2000/svg">
<title>Bell icon</title>
<desc>Created with Sketch.</desc>
<g fill="none" fill-rule="evenodd">
<g fill="#00156B" fill-rule="nonzero">
<path d="m14.556 15.597v-7.3905c0-3.4286-2.7794-6.2081-6.2081-6.2081-3.4286 0-6.2081 2.7794-6.2081 6.2081v7.3905h12.416zm-14.19-7.3905c0-4.4082 3.5736-7.9818 7.9818-7.9818 4.4082 0 7.9818 3.5736 7.9818 7.9818v9.1643h-15.964v-9.1643z"/>
<path d="m3.9138 16.484v-0.88686h8.8686v0.88686c0 2.449-1.9853 4.4343-4.4343 4.4343-2.449 0-4.4343-1.9853-4.4343-4.4343zm4.4343 2.6606c1.1584 0 2.144-0.74036 2.5092-1.7737h-5.0184c0.36524 1.0334 1.3508 1.7737 2.5092 1.7737z"/>
</g>
</g>
</svg>
