<?xml version="1.0" encoding="UTF-8"?>
<svg version="1.1" viewBox="0 0 24 21" xmlns="http://www.w3.org/2000/svg">
<title>Group 16</title>
<desc>Created with Sketch.</desc>
<g fill="none" fill-rule="evenodd">
<g transform="translate(1 1)" fill="#000" fill-rule="nonzero" stroke="#000" stroke-width=".4">
<path d="m16.006 11.614c0.012838-9.337e-4 0.024977-4.668e-4 0.037815-0.0037348 3.5721-0.64332 5.7831-3.9664 5.7831-6.676 0-0.6669-0.18838-1.1872-0.55976-1.5474-0.57773-0.56069-1.4589-0.62512-2.4265-0.61041 0.047852-0.66293 0.073763-1.3441 0.073763-2.0448 0-0.30602-0.2472-0.55299-0.55252-0.55299h-14.848c-0.30556 0-0.55392 0.2472-0.55392 0.55299 0 0.70075 0.026844 1.3819 0.075163 2.0448-0.96732-0.014472-1.8494 0.04972-2.4267 0.61064-0.37115 0.36018-0.55929 0.88025-0.55929 1.5474 0 2.7094 2.2113 6.0327 5.7831 6.676 0.012838 0.003268 0.02451 0.0028012 0.037815 0.0037349 0.78501 1.0668 1.7143 1.9094 2.7724 2.4825v1.9421h-3.1613c-0.30556 0-0.55252 0.24767-0.55252 0.55299v2.2845c0 0.30602 0.2472 0.55299 0.55252 0.55299h10.912c0.30672 0 0.55392-0.2472 0.55392-0.55299v-2.2845c0-0.30556-0.2472-0.55299-0.55392-0.55299h-3.1599v-1.9421c1.0581-0.5733 1.9874-1.416 2.7724-2.4827zm2.7285-7.7283c0.75584-0.015873 1.4657 0.0077031 1.7621 0.29599 0.055556 0.053455 0.22339 0.21569 0.22339 0.7528 0 1.7493-1.3298 4.3333-3.8443 5.2986 0.93347-1.7379 1.5684-3.8898 1.8588-6.3473zm-17.578 1.0488c0-0.53711 0.1683-0.69935 0.22339-0.7528 0.29645-0.28805 1.0065-0.31186 1.7621-0.29599 0.28992 2.4573 0.92554 4.6092 1.8588 6.3471-2.514-0.96499-3.8443-3.549-3.8443-5.2983zm14.685 12.21v1.1781h-9.8058v-1.1781h3.1608 3.4841 3.1608zm-3.401-3.8856c-0.19141 0.092204-0.31373 0.28641-0.31373 0.49883v2.2808h-2.3763v-2.2808c0-0.21242-0.12208-0.40663-0.31373-0.49837-3.2619-1.5698-5.2474-6.0231-5.3637-11.974h13.731c-0.11578 5.95-2.1027 10.404-5.3632 11.974z"/>
</g>
</g>
</svg>
