<?xml version="1.0" encoding="UTF-8"?>
<svg width="43px" height="44px" viewBox="0 0 43 44" version="1.1" xmlns="http://www.w3.org/2000/svg" xmlns:xlink="http://www.w3.org/1999/xlink">
    <!-- Generator: Sketch 42 (36781) - http://www.bohemiancoding.com/sketch -->
    <title>logologo</title>
    <desc>Created with Sketch.</desc>
    <defs>
        <polygon id="path-1" points="5.29780607e-20 0.731152174 5.29780607e-20 13.8916957 13.1470545 13.8916957 13.1470545 0.731152174 0 0.731152174"></polygon>
        <polygon id="path-3" points="0.476561364 12.6956522 13.0565045 12.6956522 13.0565045 0.105630435 0.476561364 0.105630435 0.476561364 12.6956522"></polygon>
    </defs>
    <g id="icons" stroke="none" stroke-width="1" fill="none" fill-rule="evenodd">
        <g id="Desktop-Landscape" transform="translate(-46.000000, -37.000000)">
            <g id="logo" transform="translate(46.000000, 37.000000)">
                <path d="M14.2617318,31.8989348 C14.2617318,32.9769783 13.38805,33.8515435 12.3110955,33.8515435 C11.2360955,33.8515435 10.3624136,32.9769783 10.3624136,31.8989348 C10.3624136,30.8208913 11.2360955,29.9463261 12.3110955,29.9463261 C13.38805,29.9463261 14.2617318,30.8208913 14.2617318,31.8989348" id="Fill-1" fill="#1C51C5"></path>
                <path d="M23.9410318,22.0683913 C23.9410318,23.1464348 23.06735,24.021 21.9903955,24.021 C20.9153955,24.021 20.0417136,23.1464348 20.0417136,22.0683913 C20.0417136,20.9903478 20.9153955,20.1177391 21.9903955,20.1177391 C23.06735,20.1177391 23.9410318,20.9903478 23.9410318,22.0683913" id="Fill-3" fill="#1C51C5"></path>
                <path d="M33.7137591,12.2857826 C33.7137591,13.3638261 32.8400773,14.2383913 31.7631227,14.2383913 C30.6881227,14.2383913 29.8144409,13.3638261 29.8144409,12.2857826 C29.8144409,11.2077391 30.6881227,10.3351304 31.7631227,10.3351304 C32.8400773,10.3351304 33.7137591,11.2077391 33.7137591,12.2857826" id="Fill-5" fill="#1C51C5"></path>
                <polygon id="Fill-7" fill="#12B112" points="21.8737091 15.9266739 27.8370273 21.8960217 30.6007545 19.1275435 24.6393909 13.1601522 23.5116182 14.2871087"></polygon>
                <path d="M21.8737091,10.3924565 L12.0618909,0.572673913 C11.2996182,-0.190369565 10.0623909,-0.190369565 9.29816364,0.572673913 C8.53589091,1.33767391 8.53589091,2.57615217 9.29816364,3.34115217 L19.1099818,13.1609348 L20.7478909,11.5213696 L21.8737091,10.3924565 Z" id="Fill-9" fill="#FF8500"></path>
                <path d="M33.3642864,21.8956304 L30.6005591,24.6621522 L38.8936955,32.9636739 C39.6559682,33.7267174 40.8931955,33.7286739 41.6574227,32.9636739 C42.4196955,32.2006304 42.4196955,30.9601957 41.6574227,30.1971522 L33.3642864,21.8956304 Z" id="Fill-11" fill="#12B112"></path>
                <path id="Fill-13" fill="#FF8500"></path>
                <g id="Group-17" transform="translate(0.000000, 8.003739)">
                    <mask id="mask-2" fill="white">
                        <use xlink:href="#path-1"></use>
                    </mask>
                    <g id="Clip-16"></g>
                    <path d="M13.1470545,11.1251739 L3.33719091,1.30343478 C2.57296364,0.540391304 1.33573636,0.540391304 0.571509091,1.30343478 C-0.190763636,2.06843478 -0.190763636,3.30691304 0.571509091,4.07191304 L10.3833273,13.8916957 L11.3566909,12.9173478 L13.1470545,11.1251739 Z" id="Fill-15" fill="#FF8500" mask="url(#mask-2)"></path>
                </g>
                <polygon id="Fill-18" fill="#FF8500" points="21.8737091 27.8643913 15.9103909 21.8950435 14.1200273 23.6872174 13.1466636 24.6615652 19.1080273 30.630913 20.1908455 29.5489565"></polygon>
                <path d="M21.8737091,33.3978261 L30.1668455,41.6993478 C30.9291182,42.4643478 32.1683,42.4643478 32.9305727,41.6993478 C33.6928455,40.9363043 33.6928455,39.6958696 32.9305727,38.9328261 L24.6374364,30.6313043 L22.9545727,32.3158696 L21.8737091,33.3978261 Z" id="Fill-20" fill="#12B112"></path>
                <path d="M1.14106364,31.1460652 C0.376836364,31.9110652 0.376836364,33.1495435 1.14106364,33.9145435 C1.90529091,34.677587 3.14251818,34.677587 3.90479091,33.9145435 L13.1478364,24.6621522 L10.3841091,21.8956304 L1.14106364,31.1460652 Z" id="Fill-22" fill="#FF8500"></path>
                <path d="M24.6386091,13.1599565 L33.5005182,4.28908696 C34.2627909,3.52408696 34.2627909,2.2856087 33.4985636,1.5206087 C32.7362909,0.757565217 31.4990636,0.757565217 30.7348364,1.52256522 L21.8729273,10.3914783 L23.1570636,11.676913 L24.6386091,13.1599565 Z" id="Fill-24" fill="#12B112"></path>
                <polygon id="Fill-26" fill="#FF8500" points="21.8737091 15.9266739 20.3921636 14.4436304 19.1099818 13.1601522 13.1466636 19.1295 15.9103909 21.8960217"></polygon>
                <polygon id="Fill-28" fill="#FF8500" points="21.8737091 15.9266739 23.5116182 14.2871087 24.6393909 13.1601522 23.1578455 11.6771087 21.8737091 10.3916739 20.7478909 11.520587 19.1099818 13.1601522 20.3921636 14.4436304"></polygon>
                <polygon id="Fill-30" fill="#FF8500" points="15.9109773 21.8956304 13.14725 19.1291087 11.3568864 20.9193261 10.3835227 21.8956304 13.14725 24.6621522 14.1206136 23.6878043"></polygon>
                <path d="M42.2265864,13.0243696 C42.9888591,12.2593696 42.9888591,11.0208913 42.2265864,10.2558913 C41.4623591,9.49284783 40.2251318,9.49284783 39.4609045,10.2578478 L30.60095,19.1287174 L33.3646773,21.8952391 L42.2265864,13.0243696 Z" id="Fill-32" fill="#12B112"></path>
                <g id="Group-36" transform="translate(8.818182, 30.525478)">
                    <mask id="mask-4" fill="white">
                        <use xlink:href="#path-3"></use>
                    </mask>
                    <g id="Clip-35"></g>
                    <path d="M10.2908227,0.105630435 L1.04973182,9.35606522 C0.285504545,10.1191087 0.285504545,11.357587 1.04973182,12.122587 C1.81395909,12.887587 3.05118636,12.887587 3.81345909,12.122587 L13.0565045,2.87215217 L11.8114591,1.62780435 L10.2908227,0.105630435 Z" id="Fill-34" fill="#FF8500" mask="url(#mask-4)"></path>
                </g>
                <polygon id="Fill-37" fill="#12B112" points="21.8737091 27.8643913 23.3923909 29.3846087 24.6374364 30.630913 30.6007545 24.6615652 27.8370273 21.8950435"></polygon>
                <polygon id="Fill-39" fill="#12B112" points="30.6005591 19.1279348 27.8368318 21.896413 30.6005591 24.6629348 33.3642864 21.896413"></polygon>
                <polygon id="Fill-41" fill="#FF8500" points="21.8737091 27.8643913 20.1908455 29.5489565 19.1080273 30.630913 20.6286636 32.153087 21.8737091 33.3974348 22.9545727 32.3154783 24.6374364 30.630913 23.3923909 29.3846087"></polygon>
            </g>
        </g>
    </g>
</svg>