<?xml version="1.0" encoding="UTF-8"?>
<svg version="1.1" viewBox="0 0 23 20" xmlns="http://www.w3.org/2000/svg">
<title>Group 23</title>
<desc>Created with Sketch.</desc>
<g fill="none" fill-rule="evenodd">
<g fill="#9B9B9B" fill-rule="nonzero">
<path d="m8.6597 19.966h-6.4046c-1.0378 0-1.8819-1.106-1.8819-2.465v-5.1627c0-1.3478 0.8375-2.4446 1.8668-2.4446h4.5529c1.0293 0 1.8668 1.0967 1.8668 2.4446v7.6277zm-6.4192-8.0956c-0.19679 0-0.35684 0.20959-0.35684 0.4673v5.1627c0 0.26891 0.1671 0.48773 0.37194 0.48773h4.8946v-5.6504c0-0.2577-0.16005-0.4673-0.35684-0.4673h-4.5529z"/>
<path d="m20.331 19.966h-6.4046v-10.924c0-1.3478 0.8375-2.4446 1.8668-2.4446h4.5529c1.0293 0 1.8668 1.0967 1.8668 2.4446v8.4581c5.033e-4 1.3597-0.84404 2.4657-1.8819 2.4657zm-4.8946-1.9773h4.8946c0.20535 0 0.37194-0.21882 0.37194-0.48773v-8.4588c0-0.2577-0.16005-0.4673-0.35684-0.4673h-4.5529c-0.19679 0-0.35684 0.20959-0.35684 0.4673v8.9465z"/>
<path d="m15.437 19.966h-8.2869v-17.515c0-1.3478 0.8375-2.4446 1.8668-2.4446h4.5529c1.0293 0 1.8668 1.0967 1.8668 2.4446v17.515h5.033e-4zm-6.777-1.9773h5.2671v-15.537c0-0.2577-0.16005-0.4673-0.35684-0.4673h-4.5529c-0.19679 0-0.35684 0.20959-0.35684 0.4673v15.537h-5.033e-4z"/>
<path d="m11.294 9.0543c-0.41724 0-0.75496-0.44291-0.75496-0.98864v-3.4378c0-0.54573 0.33772-0.98864 0.75496-0.98864 0.41724 0 0.75496 0.44291 0.75496 0.98864v3.4378c0 0.54573-0.33822 0.98864-0.75496 0.98864z"/>
<path d="m10.446 6.0673c-0.29796 0-0.58081-0.23266-0.6996-0.61691-0.15703-0.50618 0.029192-1.0829 0.41573-1.2879l0.84757-0.45082c0.38553-0.20564 0.82643 0.038227 0.98346 0.54375 0.15703 0.50618-0.029192 1.0829-0.41573 1.2879l-0.84757 0.45082c-0.093112 0.049432-0.18924 0.073159-0.28386 0.073159z"/>
</g>
</g>
</svg>
