<?xml version="1.0" encoding="UTF-8"?>
<svg version="1.1" viewBox="0 0 21 22" xmlns="http://www.w3.org/2000/svg">
<title>Group 10</title>
<desc>Created with Sketch.</desc>
<g fill="none" fill-rule="evenodd">
<g transform="translate(0 1)" fill="#000" fill-rule="nonzero" stroke="#000" stroke-width=".3">
<path d="m9.5 20c4.6538 0 8.4708-3.6397 8.7613-8.2221h1.8952c0.30978 0 0.56067-0.25045 0.56067-0.56023 0-6.1855-5.0322-11.218-11.218-11.218-0.30977 0-0.56067 0.2509-0.56067 0.56067v1.8957c-4.5817 0.29037-8.2216 4.1078-8.2216 8.7618 0 4.8429 3.9399 8.7823 8.7828 8.7823zm10.081-9.3425h-1.8604-7.6601v-7.6616c0-0.0022302-8.92e-4 -0.0044604-8.92e-4 -0.0069136v-1.8535c5.1225 0.2819 9.2397 4.3991 9.5214 9.5221zm-10.642-7.0804v7.6407c0 0.30978 0.2509 0.56023 0.56067 0.56023h4.4604e-4 7.6398c-0.28747 3.9642-3.604 7.1014-7.6398 7.1014-4.2251 0-7.6619-3.4367-7.6619-7.6616 0-4.0358 3.137-7.3528 7.1007-7.6407z"/>
</g>
</g>
</svg>
