<?xml version="1.0" encoding="UTF-8" standalone="no"?>
<svg width="20px" height="21px" viewBox="0 0 20 21" version="1.1" xmlns="http://www.w3.org/2000/svg" xmlns:xlink="http://www.w3.org/1999/xlink">
    <!-- Generator: Sketch 48.2 (47327) - http://www.bohemiancoding.com/sketch -->
    <title>Group 26</title>
    <desc>Created with Sketch.</desc>
    <defs></defs>
    <g id="Page-1" stroke="none" stroke-width="1" fill="none" fill-rule="evenodd">
        <g id="Group-26" fill="#000000" fill-rule="nonzero">
            <path d="M14.8910448,12.0551663 L11.089122,9.50985844 C11.1965471,8.79948801 10.8584487,8.09805894 10.265274,7.80067862 C9.67209925,7.5032983 8.9722342,7.6843581 8.55990521,8.24186901 C8.14757622,8.79937991 8.12592976,9.59387739 8.50715903,10.1778296 C8.8883883,10.7617819 9.57712663,10.9891099 10.1854152,10.7317624 L14.1709034,13.3902817 C14.3872474,13.5655227 14.6746903,13.5900907 14.9128143,13.4536935 C15.1509382,13.3172964 15.2986281,13.0434847 15.2940125,12.746966 C15.2893969,12.4504473 15.1332727,12.1824192 14.8910448,12.0551663 Z" id="Shape"></path>
            <path d="M10,0.600000381 C4.4771525,0.600000381 0,5.07715288 0,10.6000004 C0,16.1228479 4.4771525,20.6000004 10,20.6000004 C15.5228475,20.6000004 20,16.1228479 20,10.6000004 C19.9939657,5.07965429 15.5203461,0.606034651 10,0.600000381 Z M10,19.1364967 C5.28340761,19.1364967 1.45985401,15.3129431 1.45985401,10.5963507 C1.45985401,5.87975836 5.28340761,2.05620476 10,2.05620476 C14.7165924,2.05620476 18.540146,5.87975836 18.540146,10.5963507 C18.5361213,15.311275 14.7149243,19.132472 10,19.1364967 Z" id="Shape"></path>
            <path d="M10.1960784,4.12941215 C7.25055977,4.12941215 4.8627451,6.51722681 4.8627451,9.46274548 L6.19607843,9.46274548 C6.19607843,7.25360648 7.98693943,5.46274548 10.1960784,5.46274548 C12.4052174,5.46274548 14.1960784,7.25360648 14.1960784,9.46274548 L15.5294118,9.46274548 C15.5294118,6.51722681 13.1415971,4.12941215 10.1960784,4.12941215 Z" id="Shape"></path>
        </g>
    </g>
</svg>