<?xml version="1.0" encoding="UTF-8"?>
<svg version="1.1" viewBox="0 0 21 22" xmlns="http://www.w3.org/2000/svg">
<title>Group 21</title>
<desc>Created with Sketch.</desc>
<g fill="none" fill-rule="evenodd">
<g transform="translate(0 1)" fill="#9B9B9B" fill-rule="nonzero" stroke="#9B9B9B">
<path d="m20.644 9.9871c0-5.4878-4.439-9.9268-9.9268-9.9268-5.4878 0-9.9268 4.439-9.9268 9.9268 0 5.4878 4.439 9.9268 9.9268 9.9268 5.4878 0 9.9268-4.439 9.9268-9.9268zm-18.878 0c0-4.9512 4.0244-8.9512 8.9512-8.9512 4.9268 0 8.9512 4 8.9512 8.9512 0 2.5122-1.0244 4.7805-2.7073 6.3902-1.2927-2.2195-3.6585-3.5854-6.2683-3.5854-2.5854 0-4.9756 1.3902-6.2683 3.5854-1.6341-1.6098-2.6585-3.878-2.6585-6.3902zm3.439 7.0488c1.0976-2 3.2195-3.2683 5.5122-3.2683 2.3171 0 4.4146 1.2439 5.5122 3.2683-1.5122 1.1951-3.439 1.9024-5.5122 1.9024-2.0732 0-4-0.70732-5.5122-1.9024z" stroke-width=".6"/>
<path d="m10.717 11.524c2.1463 0 3.9024-1.7561 3.9024-3.9024 0-2.1463-1.7561-3.9024-3.9024-3.9024-2.1463 0-3.9024 1.7561-3.9024 3.9024 0 2.1463 1.7561 3.9024 3.9024 3.9024zm0-6.8293c1.6098 0 2.9268 1.3171 2.9268 2.9268 0 1.6098-1.3171 2.9268-2.9268 2.9268-1.6098 0-2.9268-1.3171-2.9268-2.9268 0-1.6098 1.3171-2.9268 2.9268-2.9268z" stroke-width=".3"/>
</g>
</g>
</svg>
