<?xml version="1.0" encoding="UTF-8"?>
<svg version="1.1" viewBox="0 0 22 20" xmlns="http://www.w3.org/2000/svg">
<title>Shape</title>
<desc>Created with Sketch.</desc>
<g fill="none" fill-rule="evenodd">
<path d="m10.554 0.0032692c-0.2704 0.018276-0.51554 0.16536-0.65892 0.39535l-3.1892 5.1791-5.9566 1.186c-0.30334 0.063718-0.54729 0.28867-0.63535 0.58585-0.088055 0.29719-0.0060242 0.61872 0.21364 0.8374l4.3488 4.3488-0.7907 5.9171c-0.036852 0.29786 0.087349 0.59288 0.32615 0.77469 0.2388 0.18181 0.55622 0.22304 0.83354 0.10826l5.5744-2.3853 5.5744 2.3853c0.27732 0.11478 0.59474 0.073554 0.83354-0.10826 0.2388-0.18181 0.363-0.47682 0.32615-0.77469l-0.7907-5.9171 4.3488-4.3488c0.21966-0.21868 0.30169-0.54022 0.21364-0.8374s-0.33201-0.52214-0.63534-0.58585l-5.9566-1.186-3.1892-5.1791c-0.16787-0.27041-0.47365-0.4233-0.7907-0.39535zm0.065892 2.4643 2.6488 4.3093c0.12353 0.19862 0.32399 0.33703 0.55349 0.38217l4.7837 0.96202-3.5186 3.5186c-0.18207 0.18407-0.26952 0.44157-0.23721 0.69845l0.64574 4.8628-4.5465-1.9504c-0.21055-0.089336-0.44836-0.089336-0.65892 0l-4.5465 1.9504 0.64574-4.8628c0.032314-0.25688-0.055137-0.51438-0.23721-0.69845l-3.5186-3.5186 4.7837-0.96202c0.2295-0.045139 0.42996-0.18355 0.55349-0.38217l2.6488-4.3093z" fill="#9B9B9B" fill-rule="nonzero"/>
</g>
</svg>
