<svg xmlns="http://www.w3.org/2000/svg" xmlns:xlink="http://www.w3.org/1999/xlink" width="276" height="135" viewBox="0 0 276 135">
  <defs>
    <polygon id="sorry_truck-a" points=".021 .124 4.057 .124 4.057 5.912 .021 5.912"/>
    <polygon id="sorry_truck-c" points="0 78.127 249.025 78.127 249.025 .34 0 .34"/>
    <path id="sorry_truck-e" d="M26.9249415,0.111349096 L13.461193,0.111349096 C9.78813312,0.111349096 6.45788247,1.57969684 4.02682139,3.96147225 L4.02682139,3.96147225 C2.14629945,5.80439105 0.802808725,8.19383312 0.254825143,10.8727828 L0.254825143,10.8727828 L24.2784838,5.85659735 C25.0075466,5.86426401 25.7362442,5.87120051 26.465307,5.87813701 L26.465307,5.87813701 C28.0723848,5.89420049 27.3918775,5.91026396 28.9993204,5.92632744 L28.9993204,5.92632744 L28.9993204,0.111349096 L26.9249415,0.111349096 Z"/>
    <polygon id="sorry_truck-g" points="0 78.127 249.025 78.127 249.025 .34 0 .34"/>
    <text id="sorry_truck-j" fill="#FF0049" font-family="Montserrat-ExtraBold, Montserrat" font-size="57" font-weight="600">
      <tspan x="8.777" y="55">SORRY!</tspan>
    </text>
    <filter id="sorry_truck-i" width="106.3%" height="120.3%" x="-3.2%" y="-7.2%" filterUnits="objectBoundingBox">
      <feOffset dy="2" in="SourceAlpha" result="shadowOffsetOuter1"/>
      <feGaussianBlur in="shadowOffsetOuter1" result="shadowBlurOuter1" stdDeviation="2"/>
      <feColorMatrix in="shadowBlurOuter1" values="0 0 0 0 0.312103714   0 0 0 0 0.312103714   0 0 0 0 0.312103714  0 0 0 0.5 0"/>
    </filter>
  </defs>
  <g fill="none" fill-rule="evenodd" transform="translate(0 -12)">
    <ellipse cx="138" cy="126.5" fill="#E0F1FF" rx="138" ry="20.5"/>
    <g transform="matrix(-1 0 0 1 263 59)">
      <g transform="translate(0 .025)">
        <polygon fill="#485959" points="161.562 52.422 157.412 60.151 155.322 64.035 115.509 64.035 115.509 52.422"/>
        <path fill="#354242" d="M115.524869,48.6797802 L115.524869,53.595934 C115.524869,54.0749176 115.916599,54.4670125 116.395583,54.4670125 L241.070062,54.4670125 C241.54868,54.4670125 241.940775,54.0749176 241.940775,53.595934 L241.940775,49.2533193"/>
        <g transform="translate(244.968 48.556)">
          <mask id="sorry_truck-b" fill="#fff">
            <use xlink:href="#sorry_truck-a"/>
          </mask>
          <path fill="#354242" d="M0.0205174399,0.124272892 L0.0205174399,5.04042673 C0.0205174399,5.51941038 0.412247209,5.91150523 0.891595939,5.91150523 L3.18648254,5.91150523 C3.66510112,5.91150523 4.05756104,5.51941038 4.05756104,5.04042673 L4.05756104,0.697812004" mask="url(#sorry_truck-b)"/>
        </g>
        <polygon fill="#354242" points="84.655 53.712 78.244 53.712 75.412 49.711 87.487 49.711"/>
        <polygon fill="#354242" points="90.701 51.288 74.269 51.288 73.398 49.551 91.572 49.551"/>
        <path fill="#D5D8E2" d="M56.909391,47.5909685 C55.4724401,47.5909685 54.2968857,46.4154142 54.2968857,44.9784632 L54.2968857,4.04105947 C54.2968857,2.60410852 55.4724401,1.42855413 56.909391,1.42855413 L244.553062,1.42855413 C245.990378,1.42855413 247.165932,2.60410852 247.165932,4.04105947 L247.165932,44.9784632 C247.165932,46.4154142 245.990378,47.5909685 244.553062,47.5909685 L56.909391,47.5909685 Z"/>
        <path fill="#C4C4D0" d="M60.4384272 44.4211336C59.4804599 44.4211336 58.6966353 43.6376741 58.6966353 42.6793417L58.6966353 7.2108214C58.6966353 6.2528541 59.4804599 5.46939456 60.4384272 5.46939456L134.249735 5.46939456C135.207702 5.46939456 135.688876 6.1918859 135.318321 7.07537709L120.337304 42.8151511C119.966749 43.6986422 118.880274 44.4211336 117.922307 44.4211336L60.4384272 44.4211336zM157.153879 5.46961361C158.111846 5.46961361 158.592655 6.19247003 158.222465 7.07596122L143.240353 42.8168304C142.870163 43.7006867 141.782957 44.423178 140.825355 44.423178L129.670001 44.423178C128.712034 44.423178 128.23086 43.7006867 128.601415 42.8168304L143.583162 7.07596122C143.953717 6.19247003 145.040192 5.46961361 145.99816 5.46961361L157.153879 5.46961361zM239.505224 5.46961361C240.463191 5.46961361 241.247016 6.25343822 241.247016 7.21140553L241.247016 42.6817512C241.247016 43.6397185 240.463191 44.423178 239.505224 44.423178L160.637572 44.423178C159.679605 44.423178 159.198431 43.7006867 159.568986 42.8168304L174.550733 7.07596122C174.921288 6.19247003 176.007763 5.46961361 176.96573 5.46961361L239.505224 5.46961361z"/>
        <mask id="sorry_truck-d" fill="#fff">
          <use xlink:href="#sorry_truck-c"/>
        </mask>
        <polygon fill="#485959" points="54.297 48.68 247.166 48.68 247.166 42.579 54.297 42.579" mask="url(#sorry_truck-d)"/>
        <polygon fill="#485959" points="244.988 48.68 249.025 48.68 249.025 .34 244.988 .34" mask="url(#sorry_truck-d)"/>
        <polygon fill="#485959" points="54.297 49.982 249.025 49.982 249.025 47.373 54.297 47.373" mask="url(#sorry_truck-d)"/>
        <path fill="#ABD0D8" d="M143.681587,63.866227 C143.681587,64.9804481 142.769985,65.8920503 141.655764,65.8920503 L115.538012,65.8920503 C114.423791,65.8920503 113.512189,64.9804481 113.512189,63.866227 L113.512189,55.7220446 C113.512189,54.6081885 114.423791,53.6965863 115.538012,53.6965863 L141.655764,53.6965863 C142.769985,53.6965863 143.681587,54.6081885 143.681587,55.7220446 L143.681587,63.866227 Z" mask="url(#sorry_truck-d)"/>
        <path fill="#FFF" d="M115.537903,57.186413 C115.051617,57.186413 114.655872,56.7906673 114.655872,56.3043821 L114.655872,55.7220811 C114.655872,55.2357959 115.051617,54.8404153 115.537903,54.8404153 L141.656019,54.8404153 C142.14267,54.8404153 142.53805,55.2357959 142.53805,55.7220811 L142.53805,56.3043821 C142.53805,56.7906673 142.14267,57.186413 141.656019,57.186413 L115.537903,57.186413 Z" mask="url(#sorry_truck-d)"/>
        <path fill="#BCBDBF" d="M143.680529,62.4943331 L143.680529,63.866665 C143.680529,64.9808862 142.770021,65.8913932 141.656165,65.8913932 L115.538049,65.8913932 C114.424193,65.8913932 113.51113,64.9808862 113.51113,63.866665 L113.51113,62.4943331 C113.51113,63.6081891 114.424193,64.5186961 115.538049,64.5186961 L141.656165,64.5186961 C142.770021,64.5186961 143.680529,63.6081891 143.680529,62.4943331" mask="url(#sorry_truck-d)"/>
        <polygon fill="#485959" points="155.09 60.66 152.12 62.476 149.817 58.709 147.836 55.474 144.235 49.588 147.204 47.767 150.492 53.145 152.369 56.214" mask="url(#sorry_truck-d)"/>
        <polygon fill="#485959" points="185.073 60.66 182.1 62.476 180.127 59.25 178.111 55.958 175.181 51.168 172.068 56.254 169.573 60.33 168.257 62.476 165.288 60.66 167.33 57.325 169.529 53.724 173.173 47.767 175.181 48.995 177.184 47.767 180.693 53.502 182.579 56.58" mask="url(#sorry_truck-d)"/>
        <polygon fill="#485959" points="236.994 49.587 233.171 55.84 230.737 59.816 229.109 62.476 226.135 60.66 228.39 56.972 230.567 53.415 234.025 47.767" mask="url(#sorry_truck-d)"/>
        <polygon fill="#485959" points="215.941 60.66 212.967 62.476 210.943 59.162 208.931 55.875 205.604 50.441 202.352 55.762 199.926 59.72 198.241 62.476 195.267 60.66 197.566 56.907 199.739 53.354 203.157 47.767 205.604 49.265 208.052 47.767 211.522 53.441 213.407 56.519" mask="url(#sorry_truck-d)"/>
        <path fill="#354242" d="M180.69326 53.5017436C179.739674 54.2158381 178.86896 55.0434722 178.111421 55.9579951L180.127022 59.2495474C180.802419 58.2393738 181.629323 57.3379938 182.578528 56.5804548L180.69326 53.5017436zM199.739066 53.3538866L197.566116 56.9068355C198.493782 57.7121997 199.294765 58.6617702 199.926352 59.7197692L202.351572 55.7615826C201.576509 54.8645835 200.701415 54.0548383 199.739066 53.3538866L199.739066 53.3538866zM211.521772 53.4407754C210.563805 54.150489 209.697107 54.9693612 208.930806 55.8747571L210.942392 59.1622935C211.621804 58.1608818 212.453454 57.2682637 213.40704 56.5194866L211.521772 53.4407754zM230.567214 53.4148548L228.390247 56.9721846C229.317548 57.7822949 230.110135 58.7442781 230.73734 59.8154199L233.171322 55.8400746C232.400275 54.9343136 231.525181 54.1158065 230.567214 53.4148548L230.567214 53.4148548zM169.528742 53.7238577L167.330237 57.3249969C168.231252 58.1957104 168.988791 59.205884 169.572552 60.3295971L172.067502 56.2538552C171.322741 55.3134116 170.469186 54.4638728 169.528742 53.7238577L169.528742 53.7238577zM150.491698 53.1448424C149.516572 53.8198735 148.628335 54.598952 147.835748 55.4744115L149.817032 58.7093765C150.535507 57.7557902 151.393078 56.9109974 152.368569 56.2144266L150.491698 53.1448424z" mask="url(#sorry_truck-d)"/>
        <path fill="#485959" d="M203.880413,63.2797275 C202.606652,56.9127497 196.893896,52.172564 190.181919,52.3357543 C183.469576,52.4989446 177.994121,57.5103841 177.031043,63.9321237 C176.914583,64.6995198 176.864932,65.4877253 176.884646,66.2905341 C176.896694,66.7866764 176.936122,67.2777077 177.000376,67.7592469 L180.22731,67.6807549 C180.144437,67.2021363 180.098437,66.7111051 180.086389,66.2127722 C180.066675,65.403027 180.139326,64.6140913 180.296675,63.8529016 C181.250261,59.2050808 185.31067,55.6579732 190.259316,55.5374971 C195.208692,55.4173861 199.436306,58.7629701 200.614781,63.3593148 C200.809003,64.1117426 200.919622,64.8966624 200.939337,65.7060426 C200.951749,66.2047405 200.929114,66.696867 200.869972,67.1791364 L204.096905,67.1010094 C204.137794,66.6169147 204.153127,66.1244231 204.141079,65.6282808 C204.121365,64.825472 204.033746,64.0405522 203.880413,63.2797275" mask="url(#sorry_truck-d)"/>
        <path fill="#21211F" d="M197.536837,56.4844025 C195.497506,54.9685945 192.959111,54.0989763 190.226495,54.1650556 C187.493148,54.2318651 185.000024,55.2237848 183.036994,56.8367038 C180.322632,59.0647809 178.622459,62.4724283 178.714094,66.2458849 C178.726506,66.7449479 178.770316,67.2356141 178.841506,67.7145977 L181.615742,67.6470581 C181.524107,67.17063 181.470805,66.6803289 181.458758,66.1794405 C181.337186,61.1891756 185.300484,57.0309258 190.292939,56.9097196 C195.285395,56.7885134 199.445835,60.7492554 199.567406,65.7395203 C199.579454,66.2404087 199.550248,66.7329003 199.481613,67.2129792 L202.255848,67.1454396 C202.303673,66.6639004 202.323388,66.1710437 202.311705,65.6727109 C202.219705,61.8992543 200.356707,58.5781306 197.536837,56.4844025" mask="url(#sorry_truck-d)"/>
        <path fill="#333332" d="M200.938753,65.7069553 C200.798927,59.9507547 196.017853,55.3971243 190.259462,55.5369495 C184.502166,55.6767748 179.947075,60.4578494 180.087265,66.2136849 C180.227091,71.971711 185.00853,76.5257064 190.766191,76.3855161 C196.524217,76.2456908 201.078943,71.4646162 200.938753,65.7069553" mask="url(#sorry_truck-d)"/>
        <path fill="#434856" d="M190.70442,73.8399297 C186.35925,73.9454376 182.738031,70.4965362 182.632523,66.1513659 C182.527015,61.807656 185.976282,58.1878977 190.321452,58.0823898 C194.666987,57.976882 198.287841,61.4246881 198.393714,65.7687632 C198.499222,70.1135684 195.04959,73.7344219 190.70442,73.8399297" mask="url(#sorry_truck-d)"/>
        <path fill="#E1EBFF" d="M190.67839,72.7710879 C186.922457,72.8623577 183.793,69.8811226 183.70173,66.1259199 C183.61046,62.3714475 186.591695,59.2423554 190.347263,59.1510856 C194.103196,59.0598159 197.233018,62.0403208 197.324288,65.7947933 C197.415558,69.550361 194.434322,72.6798182 190.67839,72.7710879" mask="url(#sorry_truck-d)"/>
        <path fill="#A8AEB3" d="M196.26439,65.8217361 C196.278264,66.3952752 196.208168,66.9491001 196.059946,67.4729884 C195.56782,69.2443518 194.231996,70.6740011 192.499331,71.2847783 C191.952077,71.4779051 191.364665,71.5907145 190.752793,71.6056827 C190.141651,71.6202859 189.551318,71.5363177 188.995302,71.3698417 C187.259352,70.8528898 185.866575,69.5210816 185.274782,67.8074008 C185.089322,67.2696394 184.981624,66.6961003 184.967386,66.0962755 C184.952783,65.4968158 185.032005,64.9188957 185.191544,64.3723725 C185.703385,62.6178028 187.04432,61.2122486 188.772604,60.6182651 C189.30781,60.4324399 189.881349,60.3247416 190.478253,60.3105035 C191.075888,60.2959003 191.653808,60.3754876 192.19741,60.5353922 C193.97644,61.0512488 195.397328,62.4206601 195.979994,64.1799758 C196.150486,64.6969277 196.250517,65.2489272 196.26439,65.8217361" mask="url(#sorry_truck-d)"/>
        <path fill="#434856" d="M192.29025 60.5779969C191.949266 61.1708852 191.240648 61.5494721 190.50903 61.567361 189.779967 61.5848848 189.207158 61.1708852 188.863618 60.5779969 189.40357 60.4053145 189.979665 60.3118543 190.576934 60.3118543 191.174203 60.3118543 191.750298 60.4053145 192.29025 60.5779969M192.499513 71.2847418C191.95226 71.4778686 191.364848 71.590678 190.752975 71.6056462 190.141468 71.6202494 189.5515 71.5362812 188.99512 71.3698052 189.310913 70.7287265 189.960024 70.2833301 190.720483 70.2647111 191.480943 70.246092 192.153418 70.6593615 192.499513 71.2847418M196.26439 65.8217361C196.278264 66.3952752 196.208168 66.9491001 196.059946 67.4729884 195.518899 67.1312745 195.15382 66.5351005 195.137027 65.849117 195.120598 65.1631336 195.456106 64.5479755 195.979994 64.1799758 196.150486 64.6969277 196.250517 65.2489272 196.26439 65.8217361M186.233626 66.0656089C186.251515 66.7997828 185.863801 67.452544 185.274928 67.8074008 185.089103 67.2696394 184.981405 66.6961003 184.967167 66.0962755 184.952564 65.4968158 185.032151 64.9188957 185.19169 64.3723725 185.796991 64.6987531 186.215737 65.3292445 186.233626 66.0656089" mask="url(#sorry_truck-d)"/>
        <path fill="#E1EBFF" d="M194.038248,65.8755853 C194.046645,66.2227754 194.003931,66.558283 193.914486,66.8759017 C193.616217,67.949234 192.806837,68.8155665 191.757235,69.1853915 C191.425743,69.3025819 191.069426,69.3708516 190.699236,69.3799786 C190.328315,69.3887405 189.970538,69.3376294 189.633935,69.2372327 C188.582508,68.9239949 187.73808,68.1168053 187.379937,67.0785206 C187.267128,66.752505 187.202144,66.4053149 187.193382,66.0416962 C187.18462,65.6784426 187.232446,65.3283318 187.329191,64.9975703 C187.639509,63.9340951 188.451809,63.0827309 189.498856,62.722763 C189.823411,62.6103187 190.170601,62.5449695 190.532395,62.5362076 C190.894553,62.5274457 191.244664,62.5756362 191.57433,62.6723821 C192.652043,62.9848897 193.5129,63.8147143 193.865566,64.880745 C193.969613,65.1939828 194.029851,65.5283951 194.038248,65.8755853" mask="url(#sorry_truck-d)"/>
        <path fill="#434856" d="M192.056709,65.9279741 C192.06036,66.0736406 192.042471,66.2145611 192.004503,66.347815 C191.879281,66.7986875 191.539027,67.1615761 191.097646,67.3167346 C190.958186,67.3656552 190.808504,67.3941314 190.652615,67.3974171 C190.497091,67.4010679 190.346314,67.3795282 190.205028,67.336814 C189.762918,67.2046554 189.407696,66.8651319 189.257283,66.4292276 C189.209823,66.292323 189.182442,66.1462914 189.178791,65.9936883 C189.17514,65.8410853 189.19522,65.6939585 189.235744,65.5552284 C189.366442,65.1087368 189.707791,64.7516896 190.148076,64.601277 C190.284615,64.5541818 190.430647,64.5268009 190.582885,64.5235152 C190.735123,64.5202295 190.88225,64.5403088 191.020615,64.5815627 C191.473678,64.7133563 191.835836,65.0623718 191.984423,65.5099586 C192.027868,65.6417522 192.053058,65.7823076 192.056709,65.9279741" mask="url(#sorry_truck-d)"/>
        <path fill="#434856" d="M195.979884,64.1799393 C195.397218,62.4206236 193.976696,61.0512123 192.197666,60.5353557 C191.653698,60.3754511 191.075778,60.2958638 190.478509,60.310467 C189.88124,60.3247051 189.308066,60.4324034 188.772495,60.6182286 C187.044211,61.2122121 185.703641,62.6177663 185.191435,64.372336 C185.03226,64.9188592 184.952673,65.4967793 184.967276,66.096239 L184.967276,66.0987946 L186.02272,66.073239 L186.02272,66.0710486 C186.010672,65.5840332 186.073466,65.111986 186.204529,64.6695103 C186.620719,63.2409561 187.711575,62.0986239 189.115669,61.6156244 C189.551573,61.4633865 190.019605,61.3775929 190.504064,61.3659104 C190.99108,61.3542279 191.460571,61.4170215 191.903047,61.5477197 C193.348395,61.9664653 194.503505,63.0806865 194.977743,64.5114311 C195.117568,64.9330973 195.19752,65.3821445 195.209203,65.8472551 L195.209203,65.8498107 L196.264281,65.8242552 L196.264281,65.8216996 C196.250408,65.2488907 196.150741,64.6968912 195.979884,64.1799393" mask="url(#sorry_truck-d)"/>
        <path fill="#485959" d="M173.326805,63.2797275 C172.053045,56.9127497 166.340289,52.172564 159.628311,52.3357543 C152.915969,52.4989446 147.440514,57.5103841 146.477435,63.9321237 C146.360975,64.6995198 146.311689,65.4877253 146.331039,66.2905341 C146.343086,66.7866764 146.382515,67.2777077 146.446769,67.7592469 L149.673702,67.6807549 C149.591194,67.2021363 149.544829,66.7111051 149.532781,66.2127722 C149.513067,65.403027 149.585718,64.6140913 149.743067,63.8529016 C150.696653,59.2050808 154.757062,55.6579732 159.705708,55.5374971 C164.655084,55.4173861 168.882699,58.7629701 170.061174,63.3593148 C170.255396,64.1117426 170.36638,64.8966624 170.385729,65.7060426 C170.398142,66.2047405 170.375507,66.696867 170.316364,67.1791364 L173.543297,67.1010094 C173.584186,66.6169147 173.599519,66.1244231 173.587472,65.6282808 C173.568123,64.825472 173.480139,64.0405522 173.326805,63.2797275" mask="url(#sorry_truck-d)"/>
        <path fill="#21211F" d="M166.983193,56.4844025 C164.943861,54.9685945 162.405832,54.0989763 159.672851,54.1650556 C156.939504,54.2318651 154.446745,55.2237848 152.48335,56.8367038 C149.768988,59.0647809 148.068815,62.4724283 148.160449,66.2458849 C148.172862,66.7449479 148.216672,67.2356141 148.287862,67.7145977 L151.062097,67.6470581 C150.970463,67.17063 150.917161,66.6803289 150.905113,66.1794405 C150.783907,61.1891756 154.74684,57.0309258 159.739295,56.9097196 C164.73175,56.7885134 168.892191,60.7492554 169.013762,65.7395203 C169.02581,66.2404087 168.996603,66.7329003 168.927968,67.2129792 L171.702204,67.1454396 C171.750029,66.6639004 171.770109,66.1710437 171.758061,65.6727109 C171.666061,61.8992543 169.803063,58.5781306 166.983193,56.4844025" mask="url(#sorry_truck-d)"/>
        <path fill="#333332" d="M170.385473,65.7069553 C170.245283,59.9507547 165.464208,55.3971243 159.705817,55.5369495 C153.948521,55.6767748 149.393431,60.4578494 149.533621,66.2136849 C149.673446,71.971711 154.454886,76.5257064 160.212547,76.3855161 C165.970573,76.2456908 170.525299,71.4646162 170.385473,65.7069553" mask="url(#sorry_truck-d)"/>
        <path fill="#434856" d="M160.150776,73.8399297 C155.805605,73.9454376 152.184387,70.4965362 152.078879,66.1513659 C151.973371,61.807656 155.422637,58.1878977 159.767808,58.0823898 C164.113343,57.976882 167.734197,61.4246881 167.84007,65.7687632 C167.945577,70.1135684 164.495946,73.7344219 160.150776,73.8399297" mask="url(#sorry_truck-d)"/>
        <path fill="#E1EBFF" d="M160.124782,72.7710879 C156.369214,72.8623577 153.239392,69.8811226 153.148122,66.1259199 C153.056853,62.3714475 156.038088,59.2423554 159.79402,59.1510856 C163.549588,59.0598159 166.67941,62.0403208 166.77068,65.7947933 C166.86195,69.550361 163.880715,72.6798182 160.124782,72.7710879" mask="url(#sorry_truck-d)"/>
        <path fill="#A8AEB3" d="M165.711111,65.8217361 C165.724984,66.3952752 165.654524,66.9491001 165.506302,67.4729884 C165.014176,69.2443518 163.678351,70.6740011 161.946052,71.2847783 C161.398798,71.4779051 160.811021,71.5907145 160.199149,71.6056827 C159.588006,71.6202859 158.997674,71.5363177 158.441658,71.3698417 C156.706073,70.8528898 155.312931,69.5210816 154.721138,67.8074008 C154.535678,67.2696394 154.428345,66.6961003 154.413742,66.0962755 C154.399138,65.4968158 154.478361,64.9188957 154.6379,64.3723725 C155.149741,62.6178028 156.490676,61.2122486 158.21896,60.6182651 C158.754166,60.4324399 159.327705,60.3247416 159.924974,60.3105035 C160.522244,60.2959003 161.100164,60.3754876 161.643766,60.5353922 C163.422796,61.0512488 164.843684,62.4206601 165.42635,64.1799758 C165.597207,64.6969277 165.696873,65.2489272 165.711111,65.8217361" mask="url(#sorry_truck-d)"/>
        <path fill="#434856" d="M161.736606 60.5779969C161.395622 61.1708852 160.687004 61.5494721 159.955385 61.567361 159.226323 61.5848848 158.653514 61.1708852 158.309974 60.5779969 158.849926 60.4053145 159.426021 60.3118543 160.023655 60.3118543 160.620559 60.3118543 161.196654 60.4053145 161.736606 60.5779969M161.946234 71.2847418C161.398981 71.4778686 160.811204 71.590678 160.199331 71.6056462 159.587824 71.6202494 158.997856 71.5362812 158.441476 71.3698052 158.757269 70.7287265 159.40638 70.2833301 160.166839 70.2647111 160.927299 70.246092 161.599774 70.6593615 161.946234 71.2847418M165.711111 65.8217361C165.724984 66.3952752 165.654524 66.9491001 165.506302 67.4729884 164.965255 67.1312745 164.600176 66.5351005 164.583747 65.849117 164.566954 65.1631336 164.902461 64.5479755 165.42635 64.1799758 165.597207 64.6969277 165.696873 65.2489272 165.711111 65.8217361M155.680018 66.0656089C155.697907 66.7997828 155.310193 67.452544 154.721321 67.8074008 154.535495 67.2696394 154.428162 66.6961003 154.413559 66.0962755 154.398956 65.4968158 154.478543 64.9188957 154.638083 64.3723725 155.243749 64.6987531 155.662129 65.3292445 155.680018 66.0656089" mask="url(#sorry_truck-d)"/>
        <path fill="#E1EBFF" d="M163.484641,65.8755853 C163.493037,66.2227754 163.450323,66.558283 163.360879,66.8759017 C163.062609,67.949234 162.253229,68.8155665 161.203627,69.1853915 C160.872135,69.3025819 160.515818,69.3708516 160.145628,69.3799786 C159.774708,69.3887405 159.417295,69.3376294 159.080693,69.2372327 C158.0289,68.9239949 157.184472,68.1168053 156.82633,67.0785206 C156.71352,66.752505 156.648536,66.4053149 156.639774,66.0416962 C156.631012,65.6784426 156.678838,65.3283318 156.775584,64.9975703 C157.085901,63.9340951 157.898202,63.0827309 158.945248,62.722763 C159.269803,62.6103187 159.616994,62.5449695 159.978787,62.5362076 C160.340945,62.5274457 160.691421,62.5756362 161.020722,62.6723821 C162.098436,62.9848897 162.959292,63.8147143 163.312323,64.880745 C163.416006,65.1939828 163.476609,65.5283951 163.484641,65.8755853" mask="url(#sorry_truck-d)"/>
        <path fill="#434856" d="M161.503065,65.9279741 C161.506716,66.0736406 161.488827,66.2145611 161.450858,66.347815 C161.325636,66.7986875 160.985383,67.1615761 160.544002,67.3167346 C160.404542,67.3656552 160.25486,67.3941314 160.098971,67.3974171 C159.943447,67.4010679 159.79267,67.3795282 159.651384,67.336814 C159.209273,67.2046554 158.854052,66.8651319 158.703639,66.4292276 C158.656179,66.292323 158.628798,66.1462914 158.625147,65.9936883 C158.621496,65.8410853 158.641576,65.6939585 158.682099,65.5552284 C158.812798,65.1087368 159.154512,64.7516896 159.594432,64.601277 C159.730971,64.5541818 159.877368,64.5268009 160.029241,64.5235152 C160.181479,64.5202295 160.328606,64.5403088 160.466971,64.5815627 C160.920399,64.7133563 161.282557,65.0623718 161.430779,65.5099586 C161.474224,65.6417522 161.499414,65.7823076 161.503065,65.9279741" mask="url(#sorry_truck-d)"/>
        <path fill="#434856" d="M165.42624,64.1799393 C164.843574,62.4206236 163.423052,61.0512123 161.644022,60.5353557 C161.100054,60.3754511 160.522134,60.2958638 159.92523,60.310467 C159.327595,60.3247051 158.754421,60.4324034 158.218851,60.6182286 C156.490567,61.2122121 155.149996,62.6177663 154.637791,64.372336 C154.478616,64.9188592 154.399029,65.4967793 154.413632,66.096239 L154.413632,66.0987946 L155.469076,66.073239 L155.469076,66.0710486 C155.457028,65.5840332 155.519822,65.111986 155.650885,64.6695103 C156.067075,63.2409561 157.158296,62.0986239 158.562025,61.6156244 C158.997929,61.4633865 159.46596,61.3775929 159.950785,61.3659104 C160.437436,61.3542279 160.906927,61.4170215 161.349403,61.5477197 C162.794751,61.9664653 163.949861,63.0806865 164.424098,64.5114311 C164.563924,64.9330973 164.644241,65.3821445 164.655558,65.8472551 L164.655558,65.8498107 L165.711002,65.8242552 L165.711002,65.8216996 C165.696764,65.2488907 165.597462,64.6968912 165.42624,64.1799393" mask="url(#sorry_truck-d)"/>
        <path fill="#485959" d="M234.434057,63.2797275 C233.160297,56.9127497 227.44754,52.172564 220.735563,52.3357543 C214.02322,52.4989446 208.547766,57.5103841 207.584687,63.9321237 C207.468227,64.6995198 207.418576,65.4877253 207.43829,66.2905341 C207.450338,66.7866764 207.489402,67.2777077 207.554021,67.7592469 L210.780954,67.6807549 C210.698081,67.2021363 210.652081,66.7111051 210.640033,66.2127722 C210.620319,65.403027 210.692605,64.6140913 210.850319,63.8529016 C211.803905,59.2050808 215.864314,55.6579732 220.81296,55.5374971 C225.762336,55.4173861 229.989951,58.7629701 231.168426,63.3593148 C231.362648,64.1117426 231.473267,64.8966624 231.492616,65.7060426 C231.505028,66.2047405 231.482759,66.696867 231.423616,67.1791364 L234.650549,67.1010094 C234.691073,66.6169147 234.706771,66.1244231 234.694724,65.6282808 C234.675009,64.825472 234.58739,64.0405522 234.434057,63.2797275" mask="url(#sorry_truck-d)"/>
        <path fill="#21211F" d="M228.090079,56.4844025 C226.051113,54.9685945 223.512719,54.0989763 220.779738,54.1650556 C218.046756,54.2318651 215.553632,55.2237848 213.590602,56.8367038 C210.875874,59.0647809 209.176067,62.4724283 209.267701,66.2458849 C209.280114,66.7449479 209.323924,67.2356141 209.395114,67.7145977 L212.169349,67.6470581 C212.077714,67.17063 212.024413,66.6803289 212.012365,66.1794405 C211.890794,61.1891756 215.853727,57.0309258 220.846547,56.9097196 C225.839002,56.7885134 229.999078,60.7492554 230.120649,65.7395203 C230.133062,66.2404087 230.103855,66.7329003 230.03522,67.2129792 L232.809456,67.1454396 C232.857281,66.6639004 232.876995,66.1710437 232.864948,65.6727109 C232.773313,61.8992543 230.910315,58.5781306 228.090079,56.4844025" mask="url(#sorry_truck-d)"/>
        <path fill="#333332" d="M231.49236,65.7069553 C231.352535,59.9507547 226.57146,55.3971243 220.813069,55.5369495 C215.055773,55.6767748 210.500683,60.4578494 210.640508,66.2136849 C210.780698,71.971711 215.562138,76.5257064 221.319799,76.3855161 C227.077825,76.2456908 231.632551,71.4646162 231.49236,65.7069553" mask="url(#sorry_truck-d)"/>
        <path fill="#434856" d="M221.258028,73.8399297 C216.912492,73.9454376 213.291639,70.4965362 213.186131,66.1513659 C213.080623,61.807656 216.529524,58.1878977 220.874695,58.0823898 C225.220595,57.976882 228.841449,61.4246881 228.947321,65.7687632 C229.052829,70.1135684 225.603198,73.7344219 221.258028,73.8399297" mask="url(#sorry_truck-d)"/>
        <path fill="#E1EBFF" d="M221.231997,72.7710879 C217.476065,72.8623577 214.346607,69.8811226 214.255338,66.1259199 C214.164068,62.3714475 217.145303,59.2423554 220.900871,59.1510856 C224.656804,59.0598159 227.786626,62.0403208 227.877896,65.7947933 C227.969165,69.550361 224.98793,72.6798182 221.231997,72.7710879" mask="url(#sorry_truck-d)"/>
        <path fill="#A8AEB3" d="M226.817998,65.8217361 C226.831871,66.3952752 226.761776,66.9491001 226.613189,67.4729884 C226.121427,69.2443518 224.785603,70.6740011 223.052938,71.2847783 C222.505685,71.4779051 221.918273,71.5907145 221.306401,71.6056827 C220.695258,71.6202859 220.104926,71.5363177 219.54891,71.3698417 C217.81296,70.8528898 216.420183,69.5210816 215.82839,67.8074008 C215.64293,67.2696394 215.535232,66.6961003 215.520628,66.0962755 C215.50639,65.4968158 215.585613,64.9188957 215.745152,64.3723725 C216.256993,62.6178028 217.597928,61.2122486 219.326212,60.6182651 C219.861418,60.4324399 220.434957,60.3247416 221.031861,60.3105035 C221.629495,60.2959003 222.207415,60.3754876 222.751018,60.5353922 C224.530048,61.0512488 225.95057,62.4206601 226.533602,64.1799758 C226.704094,64.6969277 226.804125,65.2489272 226.817998,65.8217361" mask="url(#sorry_truck-d)"/>
        <path fill="#434856" d="M222.843493 60.5779969C222.502874 61.1708852 221.794256 61.5494721 221.062637 61.567361 220.333574 61.5848848 219.760766 61.1708852 219.417226 60.5779969 219.957178 60.4053145 220.533273 60.3118543 221.130542 60.3118543 221.727811 60.3118543 222.303541 60.4053145 222.843493 60.5779969M223.053121 71.2847418C222.505868 71.4778686 221.918455 71.590678 221.306583 71.6056462 220.695076 71.6202494 220.105108 71.5362812 219.548728 71.3698052 219.864521 70.7287265 220.513631 70.2833301 221.274091 70.2647111 222.034186 70.246092 222.707026 70.6593615 223.053121 71.2847418M226.817998 65.8217361C226.831871 66.3952752 226.761776 66.9491001 226.613189 67.4729884 226.072507 67.1312745 225.707428 66.5351005 225.690634 65.849117 225.674206 65.1631336 226.009713 64.5479755 226.533602 64.1799758 226.704094 64.6969277 226.804125 65.2489272 226.817998 65.8217361M216.787234 66.0656089C216.805122 66.7997828 216.417409 67.452544 215.828536 67.8074008 215.642711 67.2696394 215.535013 66.6961003 215.520409 66.0962755 215.506171 65.4968158 215.585759 64.9188957 215.745298 64.3723725 216.350599 64.6987531 216.76898 65.3292445 216.787234 66.0656089" mask="url(#sorry_truck-d)"/>
        <path fill="#E1EBFF" d="M224.591892,65.8755853 C224.600289,66.2227754 224.557575,66.558283 224.467766,66.8759017 C224.169861,67.949234 223.360481,68.8155665 222.310879,69.1853915 C221.979387,69.3025819 221.62307,69.3708516 221.25288,69.3799786 C220.88196,69.3887405 220.524182,69.3376294 220.187579,69.2372327 C219.135787,68.9239949 218.291724,68.1168053 217.933582,67.0785206 C217.820772,66.752505 217.755423,66.4053149 217.747026,66.0416962 C217.738264,65.6784426 217.78609,65.3283318 217.882836,64.9975703 C218.193153,63.9340951 219.005454,63.0827309 220.052135,62.722763 C220.377055,62.6103187 220.724246,62.5449695 221.086039,62.5362076 C221.448197,62.5274457 221.798308,62.5756362 222.127974,62.6723821 C223.205688,62.9848897 224.066544,63.8147143 224.41921,64.880745 C224.523258,65.1939828 224.583496,65.5283951 224.591892,65.8755853" mask="url(#sorry_truck-d)"/>
        <path fill="#434856" d="M222.610317,65.9279741 C222.613967,66.0736406 222.596079,66.2145611 222.55811,66.347815 C222.432888,66.7986875 222.092635,67.1615761 221.651254,67.3167346 C221.511794,67.3656552 221.362112,67.3941314 221.206223,67.3974171 C221.050699,67.4010679 220.899922,67.3795282 220.758636,67.336814 C220.316525,67.2046554 219.961303,66.8651319 219.810891,66.4292276 C219.763431,66.292323 219.73605,66.1462914 219.732399,65.9936883 C219.728383,65.8410853 219.748827,65.6939585 219.789351,65.5552284 C219.92005,65.1087368 220.261398,64.7516896 220.701684,64.601277 C220.838223,64.5541818 220.984255,64.5268009 221.136493,64.5235152 C221.288731,64.5202295 221.435858,64.5403088 221.574222,64.5815627 C222.027286,64.7133563 222.389444,65.0623718 222.538031,65.5099586 C222.581475,65.6417522 222.606666,65.7823076 222.610317,65.9279741" mask="url(#sorry_truck-d)"/>
        <path fill="#434856" d="M226.533492,64.1799393 C225.950461,62.4206236 224.530304,61.0512123 222.751274,60.5353557 C222.207306,60.3754511 221.629386,60.2958638 221.032117,60.310467 C220.434847,60.3247051 219.861673,60.4324034 219.326102,60.6182286 C217.597818,61.2122121 216.257248,62.6177663 215.745043,64.372336 C215.585868,64.9188592 215.506281,65.4967793 215.520519,66.096239 L215.520884,66.0987946 L216.576327,66.073239 L216.576327,66.0710486 C216.563915,65.5840332 216.627073,65.111986 216.758137,64.6695103 C217.174327,63.2409561 218.265183,62.0986239 219.669277,61.6156244 C220.105181,61.4633865 220.573212,61.3775929 221.057672,61.3659104 C221.544688,61.3542279 222.014179,61.4170215 222.456655,61.5477197 C223.902003,61.9664653 225.057113,63.0806865 225.53135,64.5114311 C225.671176,64.9330973 225.751128,65.3821445 225.76281,65.8472551 L225.76281,65.8498107 L226.817889,65.8242552 L226.817889,65.8216996 C226.804016,65.2488907 226.704349,64.6968912 226.533492,64.1799393" mask="url(#sorry_truck-d)"/>
        <polygon fill="#354242" points="116.792 51.641 239.219 51.641 239.219 49.982 116.792 49.982" mask="url(#sorry_truck-d)"/>
        <polygon fill="#485959" points="96.607 60.39 110.283 60.39 110.283 55.763 96.607 55.763" mask="url(#sorry_truck-d)"/>
        <path fill="#FFAE0B" d="M45.3274057,21.2778265 L45.3274057,5.54693734 L43.3968679,5.54693734 C43.3968679,5.54693734 11.9810897,6.28585724 11.9964174,16.2076093 C12.005915,22.1894287 23.9688238,23.3208085 23.9688238,23.3208085 L45.3274057,21.2778265 Z" mask="url(#sorry_truck-d)"/>
        <path fill="#FED500" d="M45.3274057,12.165126 L45.3274057,20.6546731 L10.8606622,20.6546731 C11.9683119,15.0339168 11.7624073,12.165126 16.6416882,12.165126 L45.3274057,12.165126 Z" mask="url(#sorry_truck-d)"/>
        <path fill="#FF9523" d="M45.3274057,13.7687355 L45.3274057,21.1122996 L13.2971995,21.1122996 C14.1825161,16.2487172 13.6359928,13.7687355 18.1746549,13.7687355 L45.3274057,13.7687355 Z" mask="url(#sorry_truck-d)"/>
        <path fill="#FFAE0B" d="M37.1749725,50.8570748 L45.3275517,50.8570748 L45.3275517,16.2081569 C44.6700445,16.2081569 37.7981624,16.2081569 37.1749725,16.2077918 L37.1749725,50.8570748 Z" mask="url(#sorry_truck-d)"/>
        <polygon fill="#FFF" points="8.336 54.109 15.657 54.109 15.657 49.675 8.336 49.675" mask="url(#sorry_truck-d)"/>
        <polyline fill="#485959" points="52.699 56.602 74.595 56.602 76.412 53.4 98.056 53.4 100.344 56.602 100.344 67.43 6.27 67.43 3.906 56.602" mask="url(#sorry_truck-d)"/>
        <polygon fill="#333332" points="69.461 65.734 73.833 65.734 74.976 63.204 74.976 56.602 69.461 56.602" mask="url(#sorry_truck-d)"/>
        <path fill="#FFAE0B" d="M39.1982404,16.1709919 L39.1982404,53.034479 L5.05021085,56.6947611 L2.41470553,55.0431437 C2.41251506,54.2469064 2.40557856,53.6817641 2.40557856,51.2477824 C2.40557856,48.7977372 2.61586406,45.9198194 3.01635573,42.8907589 C3.04629221,42.6644099 3.07805408,42.438061 3.11018103,42.2113469 L5.95159091,26.8656161 L6.33820957,24.7726182 C7.26222452,20.0875594 10.6662211,17.3169748 13.4276787,16.9873085 C21.4732898,16.0289761 12.1466165,16.1709919 39.1982404,16.1709919" mask="url(#sorry_truck-d)"/>
        <path fill="#0F495D" d="M8.04243486,27.9248198 C7.82484777,29.1007393 7.45210211,31.1254675 7.05197553,33.2940367 C6.47770626,36.4121765 5.84611958,39.829681 5.54419925,41.4659651 C5.43431047,42.0741867 5.12107268,42.4885514 4.50773996,42.6097576 C3.89477232,42.7309638 3.01639224,42.8908684 3.01639224,42.8908684 C3.04596364,42.6645195 3.07809059,42.4381705 3.11021754,42.2114564 L4.00028015,37.4073818 L5.95126233,26.8657257 L5.95381789,26.8565987 L7.45210211,26.8565987 C7.90991118,26.8565987 8.16583156,27.2614713 8.04243486,27.9248198" mask="url(#sorry_truck-d)"/>
        <path fill="#119C8E" d="M5.79190535,27.7280423 L6.72285681,27.7280423 C7.12334847,27.7280423 7.10071357,27.9861531 7.05069775,28.2548513 L6.07922252,33.5200206 C5.50969928,34.2848611 4.8886999,35.120527 4.26843068,35.956923 L5.79190535,27.7280423 Z" mask="url(#sorry_truck-d)"/>
        <path fill="#FFAE0B" d="M2.11420901,46.8055376 C1.48517789,46.8055376 0.970416495,47.320299 0.970416495,47.9496952 L0.970416495,53.9180067 C0.970416495,54.5474029 1.48517789,55.0621643 2.11420901,55.0621643 L5.45030093,55.0621643 C6.07933205,55.0621643 7.10337865,54.9887834 7.72620343,54.899339 L15.1099262,53.8376893 C15.7323859,53.748245 16.2420362,53.1601027 16.2420362,52.5310716 L16.2420362,47.9496952 C16.2420362,47.320299 15.7272748,46.8055376 15.0982437,46.8055376 L2.11420901,46.8055376 Z" mask="url(#sorry_truck-d)"/>
        <path fill="#485959" d="M39.517867,22.528149 L39.517867,21.8418005 C39.517867,21.8418005 5.08471082,22.0488003 5.20299641,21.3226582 C4.70648897,23.0969421 3.55758535,25.3363367 3.08298265,27.7473184 L10.1593089,27.7476835 L11.836847,24.3155758 L39.517867,22.528149 Z" mask="url(#sorry_truck-d)"/>
        <g mask="url(#sorry_truck-d)">
          <g transform="translate(6.571 24.46)">
            <path fill="#FED500" d="M0.184693467,30.5784331 L0.184693467,21.7650609 C0.184693467,20.7589032 0.328534594,19.1240794 0.504137594,18.1328899 L3.34445223,2.11541377 C3.52042031,1.12422428 4.48787966,0.313748894 5.49403739,0.313748894 L30.50633,0.313748894 C31.5128528,0.313748894 32.3361059,1.13700204 32.3361059,2.14352485 L32.3361059,29.649307"/>
            <path stroke="#DD7D0A" stroke-width="1.188" d="M0.184693467,30.5784331 L0.184693467,21.7650609 C0.184693467,20.7589032 0.328534594,19.1240794 0.504137594,18.1328899 L3.34445223,2.11541377 C3.52042031,1.12422428 4.48787966,0.313748894 5.49403739,0.313748894 L30.50633,0.313748894 C31.5128528,0.313748894 32.3361059,1.13700204 32.3361059,2.14352485 L32.3361059,29.649307"/>
          </g>
        </g>
        <path fill="#FFBA0D" d="M22.1138574,42.1133597 C22.8575233,41.9837567 23.46611,42.4948673 23.46611,43.2498506 L23.46611,44.03258 C23.46611,44.7871983 22.8593487,45.5224674 22.1182383,45.6652133 L19.1965111,46.2299905 C18.4554007,46.3734666 17.8490045,47.1083706 17.8490045,47.8629889 L17.8490045,49.379162 C17.8490045,50.1341454 17.2407829,50.8602875 16.497482,50.9924461 L10.3955516,52.0789212 C9.6526158,52.2110798 9.04439418,51.7017946 9.04439418,50.9468112 L9.04439418,45.7688957 C9.04439418,45.0135473 9.65298087,44.2899607 10.3966468,44.1599926 L10.9818684,44.0577705 C11.7255344,43.9281674 12.9423427,43.7156914 13.6863737,43.5857233 L22.1138574,42.1133597 Z" mask="url(#sorry_truck-d)"/>
        <path fill="#0F495D" d="M34.7144131 26.8567082C35.7209359 26.8567082 36.5445541 27.6803264 36.5445541 28.6868492L36.5445541 35.0556524C36.5445541 36.0621752 35.7329835 37.0256187 34.7406988 37.1957455L31.5495432 37.7444593C30.5572585 37.9153163 29.334974 38.1252367 28.8329904 38.2117604 28.3310067 38.297919 27.9202929 37.544396 27.9202929 36.5382383L27.9202929 28.6868492C27.9202929 27.6803264 28.743546 26.8567082 29.7500688 26.8567082L34.7144131 26.8567082zM21.7020848 26.8567082C22.7086076 26.8567082 23.5322258 27.6803264 23.5322258 28.6868492L23.5322258 37.2906661C23.5322258 38.2971889 22.7210203 39.2624578 21.7294657 39.4358703L14.887155 40.631139C13.8959655 40.8045515 12.2731894 41.0874877 11.2816348 41.2605352L11.2520634 41.2660113C10.2608739 41.4386937 9.59752537 40.769869 9.77823948 39.7797747L10.6003974 35.2798109C10.7814766 34.2893516 11.0775556 32.6694961 11.2586348 31.6790367L11.8106343 28.6569128C11.9917135 27.6668185 12.9631887 26.8567082 13.9697115 26.8567082L21.7020848 26.8567082z" mask="url(#sorry_truck-d)"/>
        <line x1="25.709" x2="25.709" y1="24.774" y2="50.857" stroke="#DD7D0A" stroke-width="1.144" mask="url(#sorry_truck-d)"/>
        <path fill="#B76E1D" d="M26.5110149,49.9415297 C22.6864473,49.9415297 19.0754509,51.4149885 16.3421044,54.0921129 C15.5509782,54.8664454 14.8587884,55.7181747 14.274662,56.6334278 L15.9850571,56.6334278 C16.3888345,56.0916506 16.8367864,55.5776193 17.3274526,55.0964452 C19.7957517,52.6796222 23.0573675,50.8918303 26.5110149,50.8918303 L45.3275517,50.8918303 L45.3275517,49.9415297 L26.5110149,49.9415297 Z" mask="url(#sorry_truck-d)"/>
        <polygon fill="#333332" points="32.696 56.674 41.88 56.674 41.88 53.126 23.762 55.534 17.867 55.039 2.476 55.039 2.476 56.674 13.923 56.674" mask="url(#sorry_truck-d)"/>
      </g>
      <g transform="translate(13.508 50.771)">
        <mask id="sorry_truck-f" fill="#fff">
          <use xlink:href="#sorry_truck-e"/>
        </mask>
        <path d="M26.9249415,0.111349096 L13.461193,0.111349096 C9.78813312,0.111349096 6.45788247,1.57969684 4.02682139,3.96147225 L4.02682139,3.96147225 C2.14629945,5.80439105 0.802808725,8.19383312 0.254825143,10.8727828 L0.254825143,10.8727828 L24.2784838,5.85659735 C25.0075466,5.86426401 25.7362442,5.87120051 26.465307,5.87813701 L26.465307,5.87813701 C28.0723848,5.89420049 27.3918775,5.91026396 28.9993204,5.92632744 L28.9993204,5.92632744 L28.9993204,0.111349096 L26.9249415,0.111349096 Z" mask="url(#sorry_truck-f)"/>
      </g>
      <g transform="translate(0 .025)">
        <polygon fill="#333332" points="100.344 64.75 100.344 67.431 20.263 67.431 2.776 64.75"/>
        <path fill="#333332" d="M42.60231,63.6059621 C42.135739,60.9474568 40.8981212,58.549983 39.1252976,56.6581436 L33.8886044,56.6581436 C36.604062,58.0352216 38.6353616,60.5677747 39.3355831,63.6059621 C39.5119163,64.363136 39.603186,65.1498812 39.603186,65.9596265 C39.603186,66.2823563 39.5896781,66.6003401 39.5575511,66.9161334 C39.5436781,67.0877206 39.5228686,67.2614982 39.4980433,67.4308948 L42.7257067,67.4308948 C42.7395797,67.3049426 42.7508972,67.1789903 42.7625797,67.0512127 C42.7899606,66.6916099 42.8060241,66.3258007 42.8060241,65.9596265 C42.8060241,65.1568177 42.7373892,64.3700725 42.60231,63.6059621"/>
        <path fill="#FFBA0D" d="M1.86179339,56.6573405 C1.23276227,56.6573405 0.718000873,57.1717368 0.718000873,57.801133 L0.718000873,67.2015522 C0.718000873,67.8305833 1.23276227,68.3453447 1.86179339,68.3453447 L22.617995,68.3453447 C23.2470261,68.3453447 23.7617875,67.8305833 23.7617875,67.2015522 L23.7617875,57.801133 C23.7617875,57.1717368 23.2470261,56.6573405 22.617995,56.6573405 L1.86179339,56.6573405 Z"/>
        <path fill="#333332" d="M12.1167895,66.7968256 C12.1167895,67.182349 12.1335832,67.5671423 12.1624244,67.9453642 C12.174472,68.0804434 12.1865196,68.212602 12.2007577,68.3451257 L17.5561016,68.3451257 C17.5298159,68.1669671 17.4940382,67.9840625 17.4798001,67.8033484 C17.4462128,67.4711265 15.487929,67.1363491 15.487929,66.7968256 C15.487929,65.9443662 15.5843099,65.1160019 15.7694049,64.3190344 C16.5061344,61.1209424 16.4900709,57.9976915 19.3482744,56.5483279 L15.7621034,56.5483279 C13.8961846,58.5398338 12.8221222,61.5207039 12.3310909,64.3190344 C12.1887101,65.1233035 12.1167895,65.9516677 12.1167895,66.7968256"/>
        <path fill="#F3F8FF" d="M1.14390204,59.0399556 C0.514505837,59.0399556 0.000109523701,59.554717 0.000109523701,60.1841132 L0.000109523701,62.9539675 C0.000109523701,63.5829987 0.514505837,64.0977601 1.14390204,64.0977601 L3.49355049,64.0977601 C4.12258161,64.0977601 4.63734301,63.5829987 4.63734301,62.9539675 L4.63734301,60.1841132 C4.63734301,59.554717 4.12258161,59.0399556 3.49355049,59.0399556 L1.14390204,59.0399556 Z"/>
        <path fill="#485959" d="M40.7637356,63.2797275 C39.489975,56.9127497 33.7772188,52.172564 27.0652413,52.3357543 C20.3528988,52.4989446 14.8770789,57.5103841 13.9143655,63.9321237 C13.7979053,64.6995198 13.7482546,65.4877253 13.7679688,66.2905341 C13.7800165,66.7866764 13.819445,67.2777077 13.8836989,67.7592469 L17.1106322,67.6807549 C17.0281243,67.2021363 16.9817593,66.7111051 16.9697117,66.2127722 C16.9499974,65.403027 17.0222831,64.6140913 17.1799972,63.8529016 C18.1335836,59.2050808 22.1939922,55.6579732 27.1426381,55.5374971 C32.0920141,55.4173861 36.319994,58.7629701 37.4977389,63.3593148 C37.692326,64.1117426 37.8029449,64.8966624 37.8226592,65.7060426 C37.8347068,66.2047405 37.812437,66.696867 37.7532942,67.1791364 L40.9802275,67.1010094 C41.0211163,66.6169147 41.0364497,66.1244231 41.0244021,65.6282808 C41.0050529,64.825472 40.9170688,64.0405522 40.7637356,63.2797275"/>
        <path fill="#21211F" d="M34.4199404,56.4844025 C32.3809741,54.9685945 29.8425798,54.0989763 27.1095984,54.1650556 C24.376617,54.2318651 21.8834925,55.2237848 19.9204627,56.8367038 C17.2057353,59.0647809 15.5055624,62.4724283 15.5975623,66.2458849 C15.6096099,66.7449479 15.6537844,67.2356141 15.7246098,67.7145977 L18.4988451,67.6470581 C18.4072103,67.17063 18.3539087,66.6803289 18.3418611,66.1794405 C18.2206549,61.1891756 22.1835875,57.0309258 27.1760428,56.9097196 C32.1684982,56.7885134 36.3289385,60.7492554 36.4505098,65.7395203 C36.4625574,66.2404087 36.4333511,66.7329003 36.3650813,67.2129792 L39.1389515,67.1454396 C39.1867769,66.6639004 39.2068562,66.1710437 39.1948086,65.6727109 C39.1031738,61.8992543 37.2398106,58.5781306 34.4199404,56.4844025"/>
        <path fill="#333332" d="M37.8222211,65.7069553 C37.6823959,59.9507547 32.9009562,55.3971243 27.1429301,55.5369495 C21.3852692,55.6767748 16.8301785,60.4578494 16.9703688,66.2136849 C17.1101941,71.971711 21.8919989,76.5257064 27.6492947,76.3855161 C33.4073207,76.2456908 37.9620464,71.4646162 37.8222211,65.7069553"/>
        <path fill="#434856" d="M27.5875599,73.8399297 C23.2423896,73.9454376 19.621171,70.4965362 19.5156631,66.1513659 C19.4101553,61.807656 22.8594217,58.1878977 27.204592,58.0823898 C31.5501273,57.976882 35.171346,61.4246881 35.2768538,65.7687632 C35.3827267,70.1135684 31.9330952,73.7344219 27.5875599,73.8399297"/>
        <path fill="#E1EBFF" d="M27.5617123,72.7710879 C23.8057795,72.8623577 20.6763223,69.8811226 20.5850525,66.1259199 C20.4937828,62.3714475 23.4750179,59.2423554 27.2305856,59.1510856 C30.9865184,59.0598159 34.1163407,62.0403208 34.2076104,65.7947933 C34.2988802,69.550361 31.317645,72.6798182 27.5617123,72.7710879"/>
        <path fill="#A8AEB3" d="M33.1478591,65.8217361 C33.1617321,66.3952752 33.0912718,66.9491001 32.9430498,67.4729884 C32.4509233,69.2443518 31.1154643,70.6740011 29.3827993,71.2847783 C28.8355459,71.4779051 28.2477687,71.5907145 27.6362614,71.6056827 C27.0247541,71.6202859 26.4344213,71.5363177 25.878406,71.3698417 C24.1428204,70.8528898 22.749679,69.5210816 22.158251,67.8074008 C21.9724258,67.2696394 21.8650925,66.6961003 21.8504894,66.0962755 C21.8358862,65.4968158 21.9151084,64.9188957 22.0746479,64.3723725 C22.5864886,62.6178028 23.9277889,61.2122486 25.6557078,60.6182651 C26.1912787,60.4324399 26.7648178,60.3247416 27.361722,60.3105035 C27.9593563,60.2959003 28.5372764,60.3754876 29.080879,60.5353922 C30.859909,61.0512488 32.2804314,62.4206601 32.8630975,64.1799758 C33.0339544,64.6969277 33.133621,65.2489272 33.1478591,65.8217361"/>
        <path fill="#434856" d="M29.1733535 60.5779969C28.8327348 61.1708852 28.1237514 61.5494721 27.3924982 61.567361 26.6630703 61.5848848 26.0902614 61.1708852 25.7470871 60.5779969 26.2870389 60.4053145 26.8627685 60.3118543 27.4604028 60.3118543 28.0576721 60.3118543 28.6334017 60.4053145 29.1733535 60.5779969M29.3829819 71.2847418C28.8357285 71.4778686 28.2479513 71.590678 27.6364439 71.6056462 27.0249366 71.6202494 26.4346039 71.5362812 25.8785885 71.3698052 26.1943819 70.7287265 26.8431273 70.2833301 27.6035868 70.2647111 28.3640464 70.246092 29.0365219 70.6593615 29.3829819 71.2847418M33.1478591 65.8217361C33.1617321 66.3952752 33.0912718 66.9491001 32.9430498 67.4729884 32.4020027 67.1312745 32.0372888 66.5351005 32.0204951 65.849117 32.0037015 65.1631336 32.3392091 64.5479755 32.8630975 64.1799758 33.0339544 64.6969277 33.133621 65.2489272 33.1478591 65.8217361M23.1167659 66.0656089C23.1346548 66.7997828 22.7473059 67.452544 22.1584335 67.8074008 21.9726083 67.2696394 21.86491 66.6961003 21.8503068 66.0962755 21.8357037 65.4968158 21.9152909 64.9188957 22.0748304 64.3723725 22.6804965 64.6987531 23.098877 65.3292445 23.1167659 66.0656089"/>
        <path fill="#E1EBFF" d="M30.9215708,65.8755853 C30.9299676,66.2227754 30.8872534,66.558283 30.797809,66.8759017 C30.4995395,67.949234 29.6901594,68.8155665 28.6405572,69.1853915 C28.3090655,69.3025819 27.9527484,69.3708516 27.5821932,69.3799786 C27.211638,69.3887405 26.8542257,69.3376294 26.5172578,69.2372327 C25.4654651,68.9239949 24.6214025,68.1168053 24.26326,67.0785206 C24.1504506,66.752505 24.0854665,66.4053149 24.0763395,66.0416962 C24.0679427,65.6784426 24.1157681,65.3283318 24.212514,64.9975703 C24.5228312,63.9340951 25.3351319,63.0827309 26.3821785,62.722763 C26.7067338,62.6103187 27.0539239,62.5449695 27.4157172,62.5362076 C27.7778755,62.5274457 28.1279863,62.5756362 28.4572876,62.6723821 C29.5353659,62.9848897 30.3962221,63.8147143 30.7492535,64.880745 C30.852936,65.1939828 30.913174,65.5283951 30.9215708,65.8755853"/>
        <path fill="#434856" d="M28.9400315,65.9279741 C28.9436823,66.0736406 28.9254284,66.2145611 28.8878252,66.347815 C28.7626031,66.7986875 28.4223495,67.1615761 27.980969,67.3167346 C27.8415088,67.3656552 27.6918264,67.3941314 27.5359377,67.3974171 C27.380414,67.4010679 27.2300015,67.3795282 27.0883508,67.336814 C26.6458751,67.2046554 26.2913834,66.8651319 26.1406057,66.4292276 C26.0931455,66.292323 26.0657645,66.1462914 26.0621138,65.9936883 C26.058463,65.8410853 26.0789074,65.6939585 26.1194312,65.5552284 C26.2497644,65.1087368 26.5914783,64.7516896 27.0313985,64.601277 C27.1679381,64.5541818 27.3139697,64.5268009 27.4662076,64.5235152 C27.6184455,64.5202295 27.7655724,64.5403088 27.9043024,64.5815627 C28.3573654,64.7133563 28.7191587,65.0623718 28.8677459,65.5099586 C28.9111903,65.6417522 28.9363807,65.7823076 28.9400315,65.9279741"/>
        <path fill="#434856" d="M32.8631705,64.1799393 C32.2805044,62.4206236 30.859982,61.0512123 29.080952,60.5353557 C28.5369843,60.3754511 27.9590643,60.2958638 27.361795,60.310467 C26.7645258,60.3247051 26.1913517,60.4324034 25.6557808,60.6182286 C23.9274968,61.2122121 22.5865617,62.6177663 22.0747209,64.372336 C21.9151814,64.9188592 21.8355942,65.4967793 21.8501973,66.096239 L21.8505624,66.0987946 L22.9060058,66.073239 L22.9056407,66.0710486 C22.8939582,65.5840332 22.9567518,65.111986 23.0878151,64.6695103 C23.5040052,63.2409561 24.5948613,62.0986239 25.9989551,61.6156244 C26.4344943,61.4633865 26.9028907,61.3775929 27.3873505,61.3659104 C27.8743659,61.3542279 28.3438575,61.4170215 28.7863333,61.5477197 C30.231681,61.9664653 31.386791,63.0806865 31.8606635,64.5114311 C32.0004888,64.9330973 32.0811713,65.3821445 32.0924887,65.8472551 L32.0924887,65.8498107 L33.1479321,65.8242552 L33.1479321,65.8216996 C33.133694,65.2488907 33.0340275,64.6968912 32.8631705,64.1799393"/>
        <path fill="#485959" d="M107.987813,63.2797275 C106.714053,56.9127497 101.001661,52.172564 94.2893189,52.3357543 C87.5769764,52.4989446 82.1015215,57.5103841 81.1384431,63.9321237 C81.0219829,64.6995198 80.9723322,65.4877253 80.9920464,66.2905341 C81.004094,66.7866764 81.0435226,67.2777077 81.1077765,67.7592469 L84.3347098,67.6807549 C84.2522019,67.2021363 84.2058369,66.7111051 84.1937893,66.2127722 C84.174075,65.403027 84.2463606,64.6140913 84.4040748,63.8529016 C85.3576611,59.2050808 89.4180698,55.6579732 94.3670807,55.5374971 C99.3160917,55.4173861 103.544072,58.7629701 104.722182,63.3593148 C104.916404,64.1117426 105.027023,64.8966624 105.046737,65.7060426 C105.059149,66.2047405 105.036515,66.696867 104.977372,67.1791364 L108.204305,67.1010094 C108.245194,66.6169147 108.260892,66.1244231 108.24848,65.6282808 C108.22913,64.825472 108.141146,64.0405522 107.987813,63.2797275"/>
        <path fill="#21211F" d="M101.6442,56.4844025 C99.6052343,54.9685945 97.0664749,54.0989763 94.3338586,54.1650556 C91.6008771,54.2318651 89.1077526,55.2237848 87.1447228,56.8367038 C84.4299954,59.0647809 82.7298225,62.4724283 82.8214573,66.2458849 C82.83387,66.7449479 82.8776795,67.2356141 82.9488699,67.7145977 L85.7231052,67.6470581 C85.6314704,67.17063 85.5781688,66.6803289 85.5661212,66.1794405 C85.444915,61.1891756 89.4078476,57.0309258 94.4003029,56.9097196 C99.3927583,56.7885134 103.553199,60.7492554 103.67477,65.7395203 C103.686818,66.2404087 103.657611,66.7329003 103.588976,67.2129792 L106.363212,67.1454396 C106.411037,66.6639004 106.431116,66.1710437 106.419069,65.6727109 C106.327434,61.8992543 104.464071,58.5781306 101.6442,56.4844025"/>
        <path fill="#333332" d="M105.046335,65.7069553 C104.90651,59.9507547 100.12507,55.3971243 94.3670442,55.5369495 C88.6097484,55.6767748 84.0546577,60.4578494 84.1944829,66.2136849 C84.3346733,71.971711 89.1161129,76.5257064 94.8737739,76.3855161 C100.6318,76.2456908 105.18616,71.4646162 105.046335,65.7069553"/>
        <path fill="#434856" d="M94.81182,73.8399297 C90.4666497,73.9454376 86.8454311,70.4965362 86.7399232,66.1513659 C86.6344154,61.807656 90.0833167,58.1878977 94.4288521,58.0823898 C98.7743875,57.976882 102.395606,61.4246881 102.501114,65.7687632 C102.606622,70.1135684 99.1573553,73.7344219 94.81182,73.8399297"/>
        <path fill="#E1EBFF" d="M94.7857898,72.7710879 C91.0298571,72.8623577 87.9003999,69.8811226 87.8091301,66.1259199 C87.7178604,62.3714475 90.6990955,59.2423554 94.4550283,59.1510856 C98.210596,59.0598159 101.340783,62.0403208 101.432053,65.7947933 C101.523323,69.550361 98.5417226,72.6798182 94.7857898,72.7710879"/>
        <path fill="#A8AEB3" d="M100.371973,65.8217361 C100.385846,66.3952752 100.315386,66.9491001 100.167529,67.4729884 C99.6750374,69.2443518 98.3395784,70.6740011 96.6069134,71.2847783 C96.05966,71.4779051 95.4722479,71.5907145 94.8603755,71.6056827 C94.2488682,71.6202859 93.6589005,71.5363177 93.1028852,71.3698417 C91.3669345,70.8528898 89.973793,69.5210816 89.3823651,67.8074008 C89.1965399,67.2696394 89.0892066,66.6961003 89.0746035,66.0962755 C89.0600003,65.4968158 89.1395875,64.9188957 89.2991271,64.3723725 C89.8109678,62.6178028 91.151903,61.2122486 92.8798219,60.6182651 C93.4153928,60.4324399 93.9889319,60.3247416 94.5858361,60.3105035 C95.1834704,60.2959003 95.7613905,60.3754876 96.3049931,60.5353922 C98.0840231,61.0512488 99.5049106,62.4206601 100.087577,64.1799758 C100.258069,64.6969277 100.3581,65.2489272 100.371973,65.8217361"/>
        <path fill="#434856" d="M96.3976136 60.5779969C96.0566299 61.1708852 95.3480115 61.5494721 94.6167583 61.567361 93.8873304 61.5848848 93.3145215 61.1708852 92.9713472 60.5779969 93.510934 60.4053145 94.0870286 60.3118543 94.6842979 60.3118543 95.2819322 60.3118543 95.8576618 60.4053145 96.3976136 60.5779969M96.607096 71.2847418C96.0598425 71.4778686 95.4720654 71.590678 94.860558 71.6056462 94.2490507 71.6202494 93.658718 71.5362812 93.1027026 71.3698052 93.418496 70.7287265 94.0676064 70.2833301 94.8277009 70.2647111 95.5881605 70.246092 96.260636 70.6593615 96.607096 71.2847418M100.371973 65.8217361C100.385846 66.3952752 100.315386 66.9491001 100.167529 67.4729884 99.6264819 67.1312745 99.2614029 66.5351005 99.2449743 65.849117 99.2281807 65.1631336 99.5636883 64.5479755 100.087577 64.1799758 100.258069 64.6969277 100.3581 65.2489272 100.371973 65.8217361M90.341026 66.0656089C90.3589149 66.7997828 89.9715661 67.452544 89.3826936 67.8074008 89.1965033 67.2696394 89.0891701 66.6961003 89.074567 66.0962755 89.0599638 65.4968158 89.139551 64.9188957 89.2990905 64.3723725 89.9047566 64.6987531 90.3231371 65.3292445 90.341026 66.0656089"/>
        <path fill="#E1EBFF" d="M98.145831,65.8755853 C98.1542278,66.2227754 98.1115135,66.558283 98.0220692,66.8759017 C97.7234345,67.949234 96.9144195,68.8155665 95.8648173,69.1853915 C95.5329605,69.3025819 95.1770085,69.3708516 94.8064533,69.3799786 C94.4358981,69.3887405 94.0781207,69.3376294 93.7415179,69.2372327 C92.6897253,68.9239949 91.8456626,68.1168053 91.4875201,67.0785206 C91.3747107,66.752505 91.3093616,66.4053149 91.3009647,66.0416962 C91.2922028,65.6784426 91.3400282,65.3283318 91.4367741,64.9975703 C91.7467262,63.9340951 92.5593921,63.0827309 93.6064386,62.722763 C93.9309939,62.6103187 94.278184,62.5449695 94.6399773,62.5362076 C95.0021357,62.5274457 95.3522464,62.5756362 95.6815477,62.6723821 C96.759626,62.9848897 97.6204823,63.8147143 97.9735137,64.880745 C98.076831,65.1939828 98.1374341,65.5283951 98.145831,65.8755853"/>
        <path fill="#434856" d="M96.1642917,65.9279741 C96.1679424,66.0736406 96.1496885,66.2145611 96.1120854,66.347815 C95.9868633,66.7986875 95.6466096,67.1615761 95.2052291,67.3167346 C95.0657689,67.3656552 94.9160865,67.3941314 94.7601978,67.3974171 C94.6043091,67.4010679 94.4538965,67.3795282 94.312611,67.336814 C93.8701352,67.2046554 93.5152784,66.8651319 93.3648659,66.4292276 C93.3174056,66.292323 93.2900247,66.1462914 93.2863739,65.9936883 C93.2827231,65.8410853 93.3028024,65.6939585 93.3433262,65.5552284 C93.4740245,65.1087368 93.8153734,64.7516896 94.2556586,64.601277 C94.3921982,64.5541818 94.5382298,64.5268009 94.6904677,64.5235152 C94.8423406,64.5202295 94.9898325,64.5403088 95.1281974,64.5815627 C95.5816256,64.7133563 95.9434189,65.0623718 96.0916409,65.5099586 C96.1350853,65.6417522 96.1606409,65.7823076 96.1642917,65.9279741"/>
        <path fill="#434856" d="M100.087467,64.1799393 C99.504801,62.4206236 98.0842786,61.0512123 96.3052487,60.5353557 C95.7612809,60.3754511 95.1833609,60.2958638 94.5860916,60.310467 C93.9888224,60.3247051 93.4152833,60.4324034 92.8797124,60.6182286 C91.1517935,61.2122121 89.8108583,62.6177663 89.2990175,64.372336 C89.139478,64.9188592 89.0598908,65.4967793 89.0744939,66.096239 L89.0744939,66.0987946 L90.1299373,66.073239 L90.1299373,66.0710486 C90.1182548,65.5840332 90.1810484,65.111986 90.3121118,64.6695103 C90.7283018,63.2409561 91.8191579,62.0986239 93.2232517,61.6156244 C93.658791,61.4633865 94.1271873,61.3775929 94.6116472,61.3659104 C95.0986626,61.3542279 95.5681541,61.4170215 96.0106299,61.5477197 C97.4559777,61.9664653 98.6110876,63.0806865 99.0849602,64.5114311 C99.2247854,64.9330973 99.3054679,65.3821445 99.3167853,65.8472551 L99.3167853,65.8498107 L100.372229,65.8242552 L100.371864,65.8216996 C100.357991,65.2488907 100.258324,64.6968912 100.087467,64.1799393"/>
        <path fill="#127467" d="M21.2446408,30.9745438 L21.2446408,39.5210432 L11.2520634,41.2646605 C10.2616041,41.4380731 9.59789045,40.7703436 9.77860456,39.7795192 L11.7211899,29.1440377 L19.4144997,29.1440377 C20.4210225,29.1440377 21.2446408,29.9676559 21.2446408,30.9745438"/>
        <path fill="#7AC9D0" d="M10.9479161,40.6063501 C10.8215988,40.6063501 10.6489164,40.5796993 10.5430435,40.4526518 C10.4430118,40.3329059 10.41125,40.1375886 10.4539642,39.9021127 L11.5670901,33.8096743 L17.7015126,27.5430932 L21.7020483,27.5430932 C22.3329048,27.5430932 22.8458408,28.0560292 22.8458408,28.6868858 L22.8458408,29.0216632 L12.7320572,40.3110012 L11.5627091,40.5150803 C11.423249,40.5377152 11.2856142,40.5610803 11.1574714,40.5848104 L11.1205985,40.5917469 C11.0610906,40.601239 11.003043,40.6063501 10.9479161,40.6063501"/>
        <path fill="#FED500" d="M45.3275517,15.8255176 C12.8742189,15.8251525 20.0177198,15.8255176 9.77798393,15.8255176 C4.89760783,15.8255176 5.1049727,18.6943084 3.99768809,24.3157949 L45.3275517,24.3157949 L45.3275517,15.8255176 Z"/>
        <path fill="#ABD0D8" d="M71.9954411,63.866227 C71.9954411,64.9804481 71.0838388,65.8920503 69.9696177,65.8920503 L47.3354497,65.8920503 C46.2212286,65.8920503 45.3096264,64.9804481 45.3096264,63.866227 L45.3096264,55.7220446 C45.3096264,54.6081885 46.2212286,53.6965863 47.3354497,53.6965863 L69.9696177,53.6965863 C71.0838388,53.6965863 71.9954411,54.6081885 71.9954411,55.7220446 L71.9954411,63.866227 Z"/>
        <path fill="#FFF" d="M47.3353402,57.186413 C46.849055,57.186413 46.4533094,56.7906673 46.4533094,56.3043821 L46.4533094,55.7220811 C46.4533094,55.2357959 46.849055,54.8404153 47.3353402,54.8404153 L69.9698733,54.8404153 C70.4561585,54.8404153 70.8515391,55.2357959 70.8515391,55.7220811 L70.8515391,56.3043821 C70.8515391,56.7906673 70.4561585,57.186413 69.9698733,57.186413 L47.3353402,57.186413 Z"/>
        <path fill="#BCBDBF" d="M71.9943824,62.4943331 L71.9943824,63.866665 C71.9943824,64.9808862 71.0838753,65.8913932 69.9700193,65.8913932 L47.3354863,65.8913932 C46.2216302,65.8913932 45.3085676,64.9808862 45.3085676,63.866665 L45.3085676,62.4943331 C45.3085676,63.6081891 46.2216302,64.5186961 47.3354863,64.5186961 L69.9700193,64.5186961 C71.0838753,64.5186961 71.9943824,63.6081891 71.9943824,62.4943331"/>
        <mask id="sorry_truck-h" fill="#fff">
          <use xlink:href="#sorry_truck-g"/>
        </mask>
        <polygon fill="#485959" points="108.239 60.39 110.283 60.39 110.283 54.162 108.239 54.162" mask="url(#sorry_truck-h)"/>
        <path fill="#FFBA0D" d="M37.1749725,41.3307764 C37.1749725,42.0853946 36.5685763,42.8213939 35.827831,42.9656001 L29.3418375,44.2280433 C28.6007271,44.3718844 27.994696,43.8724564 27.994696,43.117473 L27.994696,42.3347436 C27.994696,41.5801253 28.600362,40.8419356 29.3407422,40.6951738 L35.8285612,39.4071751 C36.5693065,39.2604133 37.1749725,39.7576509 37.1749725,40.5129994 L37.1749725,41.3307764 Z" mask="url(#sorry_truck-h)"/>
        <path fill="#119C8E" d="M28.8278793,37.5170516 C28.743546,37.3954803 28.6062763,37.0680044 28.6062763,36.5379097 L28.6062763,30.6528362 L31.6492098,27.5430932 L34.7144131,27.5430932 C35.3452696,27.5430932 35.8582056,28.0560292 35.8582056,28.6868858 L35.8582056,30.2019636 L29.3937517,37.4188453 L28.8278793,37.5170516 Z" mask="url(#sorry_truck-h)"/>
      </g>
    </g>
    <g fill="#FF0049">
      <use filter="url(#sorry_truck-i)" xlink:href="#sorry_truck-j"/>
      <use xlink:href="#sorry_truck-j"/>
    </g>
  </g>
</svg>
